HIERARCHY
ROOT pelvis
{
  OFFSET 0 100 0
  CHANNELS 6 Xposition Yposition Zposition Zrotation Xrotation Yrotation
  JOINT pelvis_right_femur
  {
    OFFSET -10.78128 -3.44521 -0.5502486
    CHANNELS 3 Zrotation Xrotation Yrotation
    JOINT right_femur_tibia
    {
      OFFSET -0.8047443 -44.0398 -0.1307829
      CHANNELS 3 Zrotation Xrotation Yrotation
      JOINT right_tibia_foot
      {
        OFFSET 3.006224 -47.83518 -5
        CHANNELS 3 Zrotation Xrotation Yrotation
        End Site
        {
          OFFSET 0 -5 15
        }
      }
    }
  }
  JOINT pelvis_left_femur
  {
    OFFSET 10.78128 -3.44521 -0.5502486
    CHANNELS 3 Zrotation Xrotation Yrotation
    JOINT left_femur_tibia
    {
      OFFSET 0.8047443 -44.0398 -0.1307829
      CHANNELS 3 Zrotation Xrotation Yrotation
      JOINT left_tibia_foot
      {
        OFFSET -4.370144 -48.10324 -4.275266
        CHANNELS 3 Zrotation Xrotation Yrotation
        End Site
        {
          OFFSET 0 -5 15
        }
      }
    }
  }
  JOINT pelvis_spine1
  {
    OFFSET 0 6.468898 -3.129235
    CHANNELS 3 Zrotation Xrotation Yrotation
    JOINT spine1
    {
      OFFSET 0 23.15396 4.99043
      CHANNELS 3 Zrotation Xrotation Yrotation
      JOINT spine2
      {
        OFFSET 0 20.79997 -5.064912
        CHANNELS 3 Zrotation Xrotation Yrotation
        JOINT neck
        {
          OFFSET 0 14.38658 9.616178
          CHANNELS 3 Zrotation Xrotation Yrotation
          End Site
          {
            OFFSET 0 20 0
          }
        }
      }
      JOINT right_manubrium
      {
        OFFSET -5.722621 16.35077 3.967754
        CHANNELS 3 Zrotation Xrotation Yrotation
        JOINT right_clavicle
        {
          OFFSET -13.16364 1.694482 -4.693211
          CHANNELS 3 Zrotation Xrotation Yrotation
          JOINT right_humerus
          {
            OFFSET -28.5034 -0.3100689 -2.792744
            CHANNELS 3 Zrotation Xrotation Yrotation
            JOINT right_radius
            {
              OFFSET -25.15693 0.02248979 -1.271978
              CHANNELS 3 Zrotation Xrotation Yrotation
              End Site
              {
                OFFSET -15 0 0
              }
            }
          }
        }
      }
      JOINT left_manubrium
      {
        OFFSET 5.722621 16.35077 3.967754
        CHANNELS 3 Zrotation Xrotation Yrotation
        JOINT left_clavicle
        {
          OFFSET 13.16364 1.694482 -4.693211
          CHANNELS 3 Zrotation Xrotation Yrotation
          JOINT left_humerus
          {
            OFFSET 29.39168 -1.063119 -2.237045
            CHANNELS 3 Zrotation Xrotation Yrotation
            JOINT left_radius
            {
              OFFSET 24.59957 -0.9528479 0.9047498
              CHANNELS 3 Zrotation Xrotation Yrotation
              End Site
              {
                OFFSET 15 -0 -0
              }
            }
          }
        }
      }
    }
  }
}
MOTION
Frames: 21
Frame Time: 0.0416666666667
1855.929 101.4508 584.3057 2.118004 -1.431718 142.9185 8.048323 -16.1713 4.40066 -0 18.16743 -0 -8.260847 -7.805997 -2.4885 -2.872494 6.710372 -10.36536 -0 52.95364 -0 -9.094397 -5.8341 9.232878 1.455358 -0.4767276 3.503211 2.296606 9.261453 -7.884209 0.5918507 21.34172 7.308589 3.499816 -22.94069 7.75584 5.303722 -14.86476 10.91803 89.2412 34.72009 -22.43205 -0 0 8.183206 -12.37071 12.31053 6.543877 4.836322 -20.97037 -2.066078 -89.87505 26.46813 16.96135 0 0 -19.72919 4.3735 11.29017 9.748508
1859.451 102.9232 579.6623 1.762829 -0.06964093 142.2715 6.568516 -10.42269 3.517123 -0 15.50111 -0 -7.98118 -8.988658 -1.416541 -3.330118 -0.7495081 -9.511376 -0 60.69597 -0 -8.786031 -4.579825 9.229958 0.6380444 0.06724996 5.441274 1.857934 9.922641 -7.047863 0.4741808 21.73883 7.298863 3.854086 -22.55289 7.261988 5.818069 -15.61813 11.48527 88.18477 35.77894 -21.35339 -0 0 9.291321 -13.61872 12.69054 7.246363 4.554955 -21.29099 -2.11985 -91.02397 26.56089 19.36637 0 0 -19.55258 3.655158 11.04125 10.92211
1862.669 104.0992 575.3703 1.44383 1.435859 141.6676 5.366221 -5.462765 2.948655 -0 12.22945 -0 -7.981782 -9.404483 -0.5372265 -3.213178 -8.674944 -8.299598 -0 62.92304 -0 -7.549806 -5.043374 10.71424 -0.5469233 0.7847021 7.029307 1.360376 10.52551 -6.155675 0.5216261 22.07466 7.093766 4.261578 -21.83394 6.695888 6.063257 -16.53474 11.94108 86.52898 36.78249 -19.21791 -0 0 10.76921 -14.92403 12.7392 7.862621 4.744165 -21.66698 -2.112448 -91.74611 25.68471 20.94912 0 0 -19.05916 4.056557 10.76613 10.40307
1865.793 104.607 571.3295 1.918686 3.245627 141.1159 4.843264 -0.2261577 2.854735 -0 10.01757 -0 -7.790466 -10.47746 -0.751278 -2.10848 -14.83465 -6.677223 -0 58.53225 -0 -6.221583 -5.971068 13.79001 -1.377288 1.428515 7.50254 0.8390513 10.66529 -5.281544 0.8306825 22.6104 6.461786 4.14843 -20.48416 6.241654 5.251789 -17.42498 11.95159 84.81937 35.81818 -15.90322 -0 0 12.36329 -16.45605 12.29313 8.649756 5.064679 -21.19043 -2.143968 -91.83896 24.39882 20.93428 0 0 -17.32744 4.553023 10.363 9.110936
1868.952 104.353 567.3274 2.845318 4.626874 140.538 4.755337 5.404445 2.809806 -0 8.790695 -0 -7.16203 -12.72807 -1.374152 -0.484377 -19.28244 -5.179044 -0 48.98231 -0 -5.507324 -6.676404 16.95962 -1.528324 1.84186 7.250442 0.3491059 10.26222 -4.43996 1.232474 23.17313 5.722582 3.51588 -19.27089 6.149568 3.578356 -18.48018 11.59134 83.43648 33.14388 -12.11827 -0 0 14.3998 -18.17771 11.55137 9.897147 5.279955 -19.80798 -2.09638 -92.08341 23.64892 20.82011 0 0 -14.6578 4.211826 10.00913 8.649072
1872.204 103.4458 563.1278 3.520465 5.024287 139.9222 4.663026 10.69924 2.462304 -0 8.043437 -0 -6.337097 -15.36626 -1.499475 0.9912035 -22.6237 -4.213413 -0 36.97399 -0 -5.253302 -7.089543 19.08791 -1.286269 1.903343 6.87752 -0.02335396 9.549288 -3.747141 1.514131 23.49468 5.220711 2.735965 -18.79802 6.372606 1.789541 -19.6873 11.07633 82.37855 30.40508 -8.643343 -0 0 16.73272 -19.89364 10.7742 11.5373 5.350508 -18.14559 -1.847604 -92.64364 23.52045 21.47862 0 0 -11.91416 3.33186 9.822238 9.090287
1875.608 102.1153 558.5344 3.705277 4.740512 139.2977 4.213622 15.29811 1.90604 -0 8.363458 -0 -5.456869 -17.1731 -1.055088 1.710896 -24.66415 -4.055057 -0 25.49741 -0 -5.117113 -7.29118 20.19672 -1.091952 1.548136 6.659226 -0.2775034 8.754913 -3.22841 1.68528 23.58428 4.998328 2.102305 -18.9362 6.746656 0.3275456 -20.71892 10.47789 81.62835 28.36297 -5.941469 -0 0 18.74065 -21.42909 10.00836 13.19768 5.302628 -16.62386 -1.437679 -93.25306 23.71219 22.57479 0 0 -9.468171 2.405274 9.758612 9.894869
1879.199 100.7185 553.4324 3.438863 4.345591 138.7187 3.238106 18.96603 1.424082 -0 10.87721 -0 -4.708837 -16.77784 -0.3017081 1.282185 -25.23087 -4.806742 -0 17.31617 -0 -4.831733 -7.384338 20.69282 -1.268445 0.8397518 6.706654 -0.4772493 8.156162 -2.838359 1.81329 23.52633 5.009643 1.857675 -19.34053 7.092279 -0.5200371 -21.30599 9.906659 81.20675 27.22098 -4.292958 -0 0 19.92893 -22.63731 9.249092 14.46781 5.19569 -15.51318 -1.03279 -93.8005 23.85009 23.77101 0 0 -7.343788 1.781956 9.708285 10.61981
1882.968 99.63752 547.8304 2.976063 4.307429 138.2698 1.886271 21.36005 1.226715 -0 16.22304 -0 -4.364013 -13.46168 0.4054014 -0.155602 -24.42117 -6.199115 -0 13.84567 -0 -4.334731 -7.495403 20.95889 -1.846162 0.004298806 6.93624 -0.7005609 8.002466 -2.53494 1.936722 23.41602 5.185429 2.086772 -19.69647 7.284971 -0.6714896 -21.40024 9.51659 81.20453 26.81774 -3.769064 -0 0 20.14909 -23.4733 8.555065 15.11501 5.086192 -14.95579 -0.8595617 -94.28927 23.68314 24.87993 0 0 -5.520916 1.587665 9.612147 11.0656
1886.858 99.12911 541.8693 2.687879 4.80793 138.0457 0.5469467 22.16128 1.292323 -0 23.91254 -0 -4.478737 -7.89903 0.7818178 -2.017387 -22.42764 -7.743382 -0 14.30741 -0 -3.849978 -7.796728 21.14537 -2.558359 -0.6627601 7.104969 -0.9913555 8.317232 -2.300303 2.074684 23.36331 5.42774 2.598767 -19.84191 7.34749 -0.3992525 -21.1447 9.364114 81.78995 26.56809 -4.202904 -0 0 19.61356 -24.01472 8.002867 15.19258 4.981616 -14.8712 -1.070971 -94.69457 23.3326 25.70259 0 0 -4.093545 1.607464 9.503657 11.39753
1890.78 99.26948 535.7673 2.770904 5.686017 138.1103 -0.4498764 21.24248 1.421747 -0 32.54442 -0 -4.890123 -1.651501 0.7733269 -3.704824 -19.46262 -9.052141 -0 16.56807 -0 -3.595381 -8.400995 21.1578 -3.110123 -0.988475 6.999256 -1.312389 8.918963 -2.176866 2.20803 23.424 5.662458 3.094279 -19.81825 7.38566 -0.07103119 -20.73012 9.398782 82.97557 26.02794 -5.287947 -0 0 18.64576 -24.35967 7.645348 14.94316 4.84707 -15.09802 -1.638001 -94.87049 23.10297 26.00955 0 0 -3.290142 1.59497 9.467869 11.80311
1894.63 99.99171 529.7395 3.162651 6.647769 138.4766 -1.022456 18.73478 1.437223 -0 40.73925 -0 -5.471985 3.984406 0.4949995 -4.921844 -15.722 -9.998551 -0 18.76125 -0 -3.561054 -9.28547 20.87465 -3.389145 -0.9933866 6.540881 -1.575328 9.608409 -2.242743 2.287872 23.58128 5.872475 3.397963 -19.75562 7.468135 0.1378119 -20.27328 9.546131 84.56139 25.23949 -6.742988 -0 0 17.43054 -24.54969 7.487989 14.59497 4.653645 -15.55112 -2.414125 -94.62722 23.15554 25.62963 0 0 -3.295631 1.531914 9.577748 12.21537
1898.31 101.1463 523.9573 3.696558 7.46977 139.1237 -1.261261 14.9053 1.266571 -0 47.66513 -0 -6.243678 8.408344 0.1127329 -5.641099 -11.35658 -10.6477 -0 19.92445 -0 -3.602326 -10.35563 20.27438 -3.427268 -0.7965634 5.746878 -1.702035 10.27173 -2.559367 2.265545 23.79407 6.079531 3.492783 -19.76005 7.596807 0.2357743 -19.81514 9.758386 86.3115 24.4989 -8.416076 -0 0 16.00625 -24.57052 7.487162 14.2633 4.399642 -16.22953 -3.263447 -93.85765 23.47649 24.50951 0 0 -4.163078 1.535978 9.880706 12.44219
1901.741 102.5427 518.554 4.231836 8.030895 140.0109 -1.289326 10.02696 0.9175997 -0 52.87697 -0 -7.285406 11.3903 -0.2396305 -5.939905 -6.478496 -11.14052 -0 19.7127 -0 -3.585018 -11.53092 19.41782 -3.290373 -0.5207135 4.670414 -1.64472 10.85243 -3.153196 2.110544 24.03375 6.309549 3.429273 -19.88842 7.742579 0.2836293 -19.3686 10.00991 88.0649 24.05602 -10.26999 -0 0 14.37602 -24.35879 7.564475 13.96034 4.102 -17.15334 -4.103065 -92.56917 24.01599 22.6917 0 0 -5.873195 1.692038 10.40979 12.36435
1904.864 103.9719 513.6421 4.669279 8.264732 141.0779 -1.199455 4.396024 0.4652172 -0 56.03458 -0 -8.615637 12.70931 -0.508469 -5.910655 -1.240231 -11.64673 -0 18.07253 -0 -3.418235 -12.76193 18.43187 -3.037228 -0.2726859 3.401037 -1.380291 11.29873 -4.011965 1.818469 24.28166 6.57105 3.265019 -20.16159 7.874726 0.3344751 -18.95271 10.27879 89.7034 24.03192 -12.30385 -0 0 12.60982 -23.79344 7.624411 13.62083 3.791761 -18.3072 -4.87284 -90.88421 24.76524 20.31874 0 0 -8.358666 1.994386 11.18318 11.99467
1907.642 105.2258 509.3182 4.922286 8.130073 142.2394 -1.030855 -1.558855 0.08495186 -0 56.84767 -0 -10.07339 12.04589 -0.7591265 -5.652426 4.040242 -12.36388 -0 15.1935 -0 -3.024776 -14.00918 17.54307 -2.730373 -0.1526148 2.108608 -0.9141409 11.53972 -5.062653 1.427365 24.50784 6.841558 3.051652 -20.57152 7.977946 0.4400758 -18.60866 10.53517 91.07351 24.4381 -14.46351 -0 0 10.93115 -22.69526 7.579173 13.11092 3.522517 -19.58383 -5.491885 -89.07788 25.75183 17.71053 0 0 -11.42052 2.357426 12.18684 11.46302
1910.051 106.1295 505.6448 4.895185 7.611785 143.386 -0.7400915 -7.227658 0.08862762 -0 55.24676 -0 -11.24076 9.124409 -1.17444 -5.295509 8.788815 -13.49206 -0 11.61607 -0 -2.305471 -15.22737 17.10406 -2.454423 -0.2420688 1.078423 -0.2946938 11.49466 -6.141119 1.040236 24.64693 7.058615 2.833587 -21.08426 8.073587 0.671056 -18.39734 10.73869 91.93256 25.20306 -16.55838 -0 0 9.762572 -20.87018 7.391554 12.25045 3.383642 -20.7342 -5.827243 -87.61171 26.97181 15.43899 0 0 -14.59843 2.678192 13.33824 10.94298
1912.089 106.5882 502.6098 4.489652 6.718935 144.4046 -0.2036378 -12.01696 0.8297417 -0 51.59265 -0 -11.56156 4.107625 -1.900545 -5.022277 12.28 -15.11384 -0 8.21962 -0 -1.140014 -16.38119 17.48315 -2.309842 -0.5562427 0.6499018 0.38845 11.12056 -7.012977 0.8120056 24.58922 7.140998 2.645193 -21.66709 8.233443 1.112211 -18.36388 10.85118 91.99796 26.22344 -18.25745 -0 0 9.591493 -18.24481 7.118583 10.90756 3.494945 -21.41741 -5.708591 -87.02231 28.2461 14.20721 0 0 -17.19537 2.984263 14.44726 10.46962
1913.785 106.6138 500.0821 3.661075 5.45855 145.223 0.6682104 -15.81276 2.356015 -0 46.60037 -0 -10.75013 -1.94006 -2.776756 -5.020941 14.07516 -17.00516 -0 5.817293 -0 0.4943008 -17.49903 18.71975 -2.358573 -0.9974675 0.9912259 1.046531 10.48191 -7.507902 0.8481077 24.22474 7.068614 2.515993 -22.34443 8.540814 1.794124 -18.47669 10.86543 91.18805 27.43094 -19.29376 -0 0 10.54554 -15.07384 6.895104 9.170833 3.944579 -21.45968 -5.044505 -87.53362 29.14024 14.36104 0 0 -18.71537 3.54575 15.24855 9.788811
1915.232 106.2934 497.822 2.514603 3.852957 145.8476 1.797508 -19.15216 4.144134 -0 40.96882 -0 -9.152342 -7.190016 -3.364775 -5.325482 14.4772 -18.64165 -0 4.604186 -0 2.311347 -18.69405 20.25127 -2.550893 -1.392466 1.878307 1.633705 9.762308 -7.672211 1.085898 23.55009 6.947746 2.480509 -23.19069 8.998363 2.59562 -18.61594 10.81803 89.87839 28.76623 -19.76759 -0 0 12.05244 -11.9826 6.836237 7.41278 4.690033 -21.12057 -3.979473 -88.69633 29.27986 15.4262 0 0 -19.42636 4.622478 15.56817 8.63157
1916.564 105.7235 495.5751 1.314659 2.04201 146.353 2.996985 -22.55967 5.527728 -0 35.27972 -0 -7.525932 -10.24039 -3.427306 -5.739922 14.29609 -19.59257 -0 4.240385 -0 3.767599 -20.0332 21.30443 -2.741547 -1.618807 2.839046 2.1306 9.150701 -7.706184 1.354017 22.71724 6.91919 2.559754 -24.19411 9.50407 3.295287 -18.66427 10.75384 88.6949 30.09128 -20.07743 -0 0 13.26509 -9.587036 6.962351 6.02698 5.552225 -20.87411 -2.84328 -89.76901 28.81373 16.53667 0 0 -20.07717 6.031975 15.47839 7.199903
